<?xml version="1.0" encoding="utf-8"?>
<!-- Generator: Adobe Illustrator 26.5.0, SVG Export Plug-In . SVG Version: 6.00 Build 0)  -->
<svg version="1.1" id="Layer_1" xmlns="http://www.w3.org/2000/svg" xmlns:xlink="http://www.w3.org/1999/xlink" x="0px" y="0px"
	 viewBox="0 0 76.4 33" style="enable-background:new 0 0 76.4 33;" xml:space="preserve">
<style type="text/css">
	.st0{fill:#FFFFFF;fill-opacity:0;}
	.st1{fill:none;}
	.st2{fill:#343C3E;fill-opacity:0;}
	.st3{fill-rule:evenodd;clip-rule:evenodd;fill:#0BBF64;}
	.st4{fill:#FFFFFF;}
</style>
<rect x="-31.4" y="-33" class="st0" width="512" height="100"/>
<rect x="-31.4" y="-33" class="st1" width="512" height="100"/>
<g transform="translate(78.41000366210938,85)">
	<g>
		<g transform="matrix(1,0,0,1,0,0)">
			<g>
				<rect x="-78.4" y="-84" class="st2" width="32" height="32"/>
				<g>
					<path class="st3" d="M-62.3-84c8.7,0,15.9,7.2,15.9,16.1c0,8.7-7.2,15.9-15.9,15.9c-8.9,0-16.1-7.2-16.1-15.9
						C-78.4-76.8-71.2-84-62.3-84z"/>
				</g>
			</g>
		</g>
		<g transform="translate(24.82000732421875,23.961000442504883)">
			<g transform="matrix(1,0,0,1,0,0)">
				<g transform="scale(1)">
					<g>
						<path class="st4" d="M-87.8-90.3l0.3-1.2h4.7l-1,5.2H-86l-0.3-1.2h-0.1c-0.3,0.4-0.7,0.7-1.1,0.9c-0.4,0.3-1,0.4-1.7,0.4l0,0
							c-0.5,0-1-0.1-1.5-0.3c-0.5-0.2-0.9-0.4-1.3-0.8c-0.4-0.4-0.7-0.9-0.9-1.5c-0.2-0.6-0.3-1.3-0.3-2.2l0,0
							c0-0.9,0.1-1.8,0.4-2.7c0.3-0.8,0.7-1.6,1.3-2.2c0.6-0.6,1.3-1.1,2.2-1.5c0.9-0.4,1.9-0.6,3-0.6l0,0c0.9,0,1.7,0.1,2.3,0.3
							c0.7,0.2,1.3,0.4,1.9,0.7l0,0l-0.7,3.5h-3c0-0.1,0-0.3,0.1-0.5c0-0.2,0-0.4,0.1-0.6c0-0.2,0-0.4,0-0.6c0-0.2,0-0.4,0-0.5l0,0
							c0-0.1,0-0.2,0-0.3c0-0.1,0-0.2-0.1-0.4c0-0.1-0.1-0.2-0.2-0.3c-0.1-0.1-0.2-0.1-0.4-0.1l0,0c-0.3,0-0.6,0.1-0.9,0.4
							c-0.3,0.3-0.5,0.6-0.7,1c-0.2,0.4-0.4,0.9-0.5,1.4c-0.2,0.5-0.3,1.1-0.4,1.6c-0.1,0.6-0.2,1.1-0.2,1.6c-0.1,0.5-0.1,1-0.1,1.4
							l0,0c0,0.1,0,0.3,0,0.4c0,0.2,0,0.4,0.1,0.5c0.1,0.2,0.2,0.3,0.3,0.4c0.1,0.1,0.3,0.2,0.5,0.2l0,0c0.4,0,0.8-0.2,1.2-0.6
							c0.4-0.4,0.7-1.2,0.8-2.2l0,0H-87.8z M-81.4-91.8l0.3-1.6c0.6-0.3,1.2-0.5,1.9-0.7c0.6-0.1,1.4-0.2,2.2-0.2l0,0
							c0.8,0,1.4,0.1,1.9,0.2c0.5,0.1,0.9,0.3,1.2,0.5c0.3,0.2,0.5,0.5,0.6,0.8c0.1,0.3,0.2,0.7,0.2,1.1l0,0c0,0.2,0,0.5,0,0.7
							s-0.1,0.5-0.1,0.7l0,0l-0.8,4H-77l-0.3-1.2h-0.1c-0.4,0.4-0.8,0.7-1.3,1c-0.5,0.2-1,0.3-1.5,0.3l0,0c-0.3,0-0.6,0-0.8-0.1
							c-0.3-0.1-0.5-0.2-0.7-0.4c-0.2-0.2-0.4-0.4-0.5-0.7c-0.1-0.3-0.2-0.6-0.2-1l0,0c0-0.6,0.2-1.1,0.5-1.5
							c0.3-0.4,0.8-0.6,1.3-0.8c0.6-0.2,1.2-0.3,1.9-0.4c0.7,0,1.4-0.1,2.1-0.1l0,0c0-0.1,0.1-0.3,0.1-0.5c0-0.2,0.1-0.4,0.1-0.6
							l0,0c0-0.2-0.1-0.4-0.2-0.6c-0.1-0.2-0.4-0.3-0.7-0.3l0,0c-0.4,0-0.7,0.1-0.9,0.4c-0.2,0.2-0.3,0.5-0.4,0.9l0,0H-81.4z
							 M-77.2-88.8l0.3-1.4h-0.3c-0.3,0-0.6,0-0.9,0.1c-0.2,0.1-0.4,0.2-0.6,0.4c-0.2,0.1-0.3,0.3-0.3,0.5c-0.1,0.2-0.1,0.4-0.1,0.5
							l0,0c0,0.3,0.1,0.5,0.2,0.6c0.1,0.1,0.3,0.2,0.5,0.2l0,0c0.3,0,0.5-0.1,0.7-0.3C-77.4-88.3-77.3-88.5-77.2-88.8L-77.2-88.8z
							 M-64.6-91.8h-2.3c0-0.1,0-0.1,0-0.2c0-0.1,0-0.1,0-0.2l0,0c0-0.2,0-0.4-0.1-0.6c-0.1-0.2-0.2-0.3-0.5-0.3l0,0
							c-0.2,0-0.4,0.1-0.6,0.3c-0.2,0.2-0.3,0.4-0.3,0.7l0,0c0,0.2,0.1,0.3,0.2,0.5c0.1,0.1,0.2,0.2,0.4,0.3
							c0.2,0.1,0.4,0.1,0.6,0.2c0.2,0,0.4,0.1,0.6,0.1l0,0c0.3,0.1,0.6,0.2,0.8,0.3c0.3,0.1,0.5,0.2,0.7,0.4
							c0.2,0.2,0.4,0.4,0.5,0.6c0.1,0.2,0.2,0.5,0.2,0.9l0,0c0,0.5-0.1,0.9-0.3,1.3c-0.2,0.3-0.6,0.6-1,0.8
							c-0.4,0.2-0.9,0.4-1.5,0.4c-0.6,0.1-1.2,0.1-1.8,0.1l0,0c-1,0-1.8-0.1-2.4-0.2c-0.6-0.1-1.1-0.3-1.3-0.4l0,0l0.4-1.8h2.4
							c0,0.1,0,0.1,0,0.2c0,0.1,0,0.1,0,0.2l0,0c0,0.3,0.1,0.5,0.2,0.7c0.1,0.2,0.3,0.2,0.7,0.2l0,0c0.3,0,0.6-0.1,0.7-0.3
							c0.1-0.2,0.2-0.4,0.2-0.5l0,0c0-0.2-0.1-0.3-0.2-0.4c-0.1-0.1-0.3-0.2-0.5-0.3c-0.2-0.1-0.4-0.2-0.6-0.2
							c-0.2-0.1-0.5-0.1-0.7-0.2l0,0c-0.2,0-0.3-0.1-0.5-0.2c-0.2-0.1-0.4-0.2-0.6-0.4c-0.2-0.2-0.3-0.4-0.4-0.6
							c-0.1-0.2-0.2-0.6-0.2-0.9l0,0c0-0.5,0.1-1,0.4-1.3c0.3-0.4,0.6-0.6,1-0.9c0.4-0.2,0.9-0.4,1.4-0.5c0.5-0.1,1-0.1,1.6-0.1l0,0
							c0.7,0,1.3,0.1,1.9,0.2c0.6,0.1,1.1,0.3,1.4,0.5l0,0L-64.6-91.8z M-55.2-89.2l-0.5,2.5c-0.5,0.2-1,0.3-1.6,0.4
							c-0.6,0.1-1.2,0.1-1.9,0.1l0,0c-0.6,0-1.2-0.1-1.7-0.2c-0.5-0.1-1-0.3-1.4-0.6c-0.4-0.3-0.7-0.6-0.9-1.1
							c-0.2-0.4-0.3-1-0.3-1.6l0,0c0-0.6,0.1-1.3,0.3-1.8c0.2-0.6,0.6-1,1-1.5c0.5-0.4,1-0.7,1.7-1c0.7-0.2,1.5-0.4,2.5-0.4l0,0
							c0.8,0,1.5,0.1,2,0.2c0.6,0.1,1,0.4,1.4,0.9l0,0l-0.5,2.3h-2.4c0-0.2,0-0.4,0-0.5c0-0.2,0-0.3,0-0.5l0,0c0-0.4,0-0.7-0.1-0.8
							c-0.1-0.2-0.2-0.2-0.4-0.2l0,0c-0.3,0-0.6,0.2-0.9,0.5c-0.3,0.3-0.5,0.7-0.6,1.2c-0.2,0.5-0.3,1-0.4,1.5
							c-0.1,0.5-0.1,0.9-0.1,1.3l0,0c0,0.1,0,0.3,0,0.4c0,0.1,0,0.3,0.1,0.4s0.1,0.2,0.2,0.3c0.1,0.1,0.2,0.1,0.3,0.1l0,0
							c0.1,0,0.3,0,0.4-0.1c0.2-0.1,0.3-0.2,0.5-0.3c0.1-0.2,0.3-0.3,0.4-0.6c0.1-0.2,0.2-0.5,0.3-0.9l0,0H-55.2z M-53.4-91.8
							l0.3-1.6c0.6-0.3,1.2-0.5,1.9-0.7c0.6-0.1,1.4-0.2,2.2-0.2l0,0c0.8,0,1.4,0.1,1.9,0.2c0.5,0.1,0.9,0.3,1.2,0.5
							c0.3,0.2,0.5,0.5,0.6,0.8c0.1,0.3,0.2,0.7,0.2,1.1l0,0c0,0.2,0,0.5,0,0.7c0,0.3-0.1,0.5-0.1,0.7l0,0l-0.8,4H-49l-0.3-1.2h-0.1
							c-0.4,0.4-0.8,0.7-1.3,1c-0.5,0.2-1,0.3-1.5,0.3l0,0c-0.3,0-0.6,0-0.8-0.1c-0.3-0.1-0.5-0.2-0.7-0.4c-0.2-0.2-0.4-0.4-0.5-0.7
							c-0.1-0.3-0.2-0.6-0.2-1l0,0c0-0.6,0.2-1.1,0.5-1.5c0.3-0.4,0.8-0.6,1.3-0.8c0.6-0.2,1.2-0.3,1.9-0.4c0.7,0,1.4-0.1,2.1-0.1
							l0,0c0-0.1,0.1-0.3,0.1-0.5c0-0.2,0.1-0.4,0.1-0.6l0,0c0-0.2-0.1-0.4-0.2-0.6c-0.1-0.2-0.4-0.3-0.7-0.3l0,0
							c-0.4,0-0.7,0.1-0.9,0.4c-0.2,0.2-0.3,0.5-0.4,0.9l0,0H-53.4z M-49.2-88.8l0.3-1.4h-0.3c-0.3,0-0.6,0-0.9,0.1
							c-0.2,0.1-0.4,0.2-0.6,0.4c-0.2,0.1-0.3,0.3-0.3,0.5c-0.1,0.2-0.1,0.4-0.1,0.5l0,0c0,0.3,0.1,0.5,0.2,0.6
							c0.1,0.1,0.3,0.2,0.5,0.2l0,0c0.3,0,0.5-0.1,0.7-0.3C-49.4-88.3-49.3-88.5-49.2-88.8L-49.2-88.8z M-38.4-98.4l-2.6,12.1h-3.7
							l2.6-12.1H-38.4z M-30.6-89.2l-0.5,2.5c-0.5,0.2-1,0.3-1.6,0.4c-0.6,0.1-1.2,0.1-1.9,0.1l0,0c-0.6,0-1.2-0.1-1.7-0.2
							c-0.5-0.1-1-0.3-1.4-0.6c-0.4-0.3-0.7-0.6-0.9-1.1c-0.2-0.4-0.3-1-0.3-1.6l0,0c0-0.6,0.1-1.3,0.3-1.8c0.2-0.6,0.6-1,1-1.5
							c0.5-0.4,1-0.7,1.7-1c0.7-0.2,1.5-0.4,2.5-0.4l0,0c0.8,0,1.5,0.1,2,0.2c0.6,0.1,1,0.4,1.4,0.9l0,0l-0.5,2.3h-2.4
							c0-0.2,0-0.4,0-0.5c0-0.2,0-0.3,0-0.5l0,0c0-0.4,0-0.7-0.1-0.8c-0.1-0.2-0.2-0.2-0.4-0.2l0,0c-0.3,0-0.6,0.2-0.9,0.5
							c-0.3,0.3-0.5,0.7-0.6,1.2c-0.2,0.5-0.3,1-0.4,1.5c-0.1,0.5-0.1,0.9-0.1,1.3l0,0c0,0.1,0,0.3,0,0.4c0,0.1,0,0.3,0.1,0.4
							c0,0.1,0.1,0.2,0.2,0.3c0.1,0.1,0.2,0.1,0.3,0.1l0,0c0.1,0,0.3,0,0.4-0.1c0.2-0.1,0.3-0.2,0.5-0.3c0.1-0.2,0.3-0.3,0.4-0.6
							c0.1-0.2,0.2-0.5,0.3-0.9l0,0H-30.6z"/>
					</g>
				</g>
			</g>
		</g>
	</g>
</g>
</svg>
